<?xml version="1.0" encoding="utf-8"?>
<!-- Generator: Adobe Illustrator 21.0.0, SVG Export Plug-In . SVG Version: 6.00 Build 0)  -->
<svg version="1.1" xmlns="http://www.w3.org/2000/svg" xmlns:xlink="http://www.w3.org/1999/xlink" x="0px" y="0px"
	 viewBox="0 0 400 40" style="enable-background:new 0 0 400 40;" xml:space="preserve">
<style type="text/css">
	.st0{fill:#3181E4;}
	.st1{fill:#3181E4;stroke:#FFFFFF;stroke-width:0.5;stroke-miterlimit:10;}
	.st2{fill:#FFFFFF;}
</style>
<g id="Слой_2">
	<rect class="st0" width="400" height="40"/>
	<path class="st1" d="M262,31h-33c-5.8,0-10.5-4.7-10.5-10.5v0c0-5.8,4.7-10.5,10.5-10.5h33c5.8,0,10.5,4.7,10.5,10.5v0
		C272.5,26.3,267.8,31,262,31z"/>
</g>
<g id="Слой_3">
</g>
<g id="Слой_1">
	<g>
		<path class="st2" d="M32.1,10.7c2.3,2.6,3.4,5.9,3.4,9.8c0,3.8-1.1,7-3.4,9.7c-2.5,2.9-5.8,4.4-9.9,4.4c-4.1,0-7.4-1.5-9.9-4.4
			C10.1,27.5,9,24.3,9,20.5c0-3.8,1.1-7.1,3.3-9.8c2.5-2.9,5.8-4.4,9.9-4.4C26.4,6.4,29.7,7.8,32.1,10.7z M14.6,11.5
			c-1.7,2.5-2.6,5.5-2.6,9.1c0,3.5,0.9,6.5,2.6,8.9c1.9,2.7,4.5,4.1,7.6,4.1c3.2,0,5.7-1.4,7.6-4.1c1.8-2.5,2.6-5.5,2.6-8.9
			c0-3.6-0.9-6.6-2.6-9.1c-1.9-2.7-4.4-4.1-7.6-4.1C19,7.4,16.5,8.7,14.6,11.5z"/>
		<path class="st2" d="M53.2,32.9c1.7,0,2.8-0.2,3.4-0.5c0.6-0.3,0.9-1,0.9-2V10.9c0-1-0.3-1.7-0.9-2.1C55.9,8.4,54,10,53.2,8.1v-1
			H75l3.1,6.8l-0.7,0.4l-0.7-0.9C75.5,11.7,74,10.7,73,10c-1.7-1.1-3.6-1.9-6.4-1.9H63c-1.1,0-1.9,0.2-2.3,0.6
			c-0.3,0.3-0.5,1-0.5,1.9v8.2h7.1c3.8,0,6.8,0.8,8.8,2.4c1.7,1.3,2.5,3,2.5,5.1c0,2.1-0.9,3.8-2.8,5.2c-2.1,1.6-4.8,2.4-8.3,2.4
			H53.2V32.9z M60.2,30.4c0,1,0.3,1.6,0.9,2c0.5,0.4,1.5,0.5,2.9,0.5h3c2.7,0,4.8-0.7,6.5-2.1c1.5-1.2,2.3-2.7,2.3-4.5
			s-0.8-3.3-2.3-4.6c-1.6-1.3-3.7-2-6-2h-7V30.4z"/>
		<path class="st2" d="M104.2,8.5c-0.6-0.3-1.8-0.4-3.4-0.4v-1h23.9v1c-1.8,0-3,0.2-3.6,0.5c-0.5,0.3-0.8,0.9-0.8,1.9v19.7
			c0,0.9,0.3,1.5,0.8,1.9c0.7,0.5,1.9,0.8,3.6,0.8v1h-11.6v-1c1.6,0,2.7-0.2,3.5-0.7c0.7-0.4,1-1.1,1-2V8.1h-11.2v15.2
			c0,4.2-0.7,7.2-2.2,9c-1.2,1.5-3,2.2-5.3,2.2c-1.8,0-3.1-0.3-3.8-0.8c-0.7-0.4-1-1.1-1-2c0-0.7,0.2-1.2,0.6-1.6
			c0.4-0.4,1-0.6,1.8-0.6c0.5,0,1,0.2,1.4,0.5c0.3,0.2,0.7,0.6,1.1,1.2c0.4,0.5,0.8,0.9,1,1c0.3,0.3,0.7,0.5,1.1,0.5
			c1,0,2-0.8,2.9-2.3c1-1.6,1.4-3.7,1.4-6.1V10C105.2,9.3,104.8,8.8,104.2,8.5z"/>
		<path class="st2" d="M166.8,30c0.5,1.1,1,1.8,1.6,2.2c0.6,0.4,3.4,0.7,4.6,0.7l-1.8,0.9h-11.3v-1c1.9,0,3.2-0.2,3.8-0.5
			c0.7-0.4,0.7-1.1,0.2-2.2l-2.6-6H149l-2,5.1c-0.6,1.4-0.7,2.4-0.1,2.9c0.5,0.5,1.8,0.7,3.9,0.7v1H141v-1c1.3,0,2.2-0.2,2.7-0.7
			c0.6-0.5,1.3-1.6,2-3.4l8.8-21.6l2.4-0.9L166.8,30z M149.4,23.1h11.4l-5.7-13.8L149.4,23.1z"/>
		<path class="st2" d="M187.4,32.2c0.8-0.5,1.1-1.1,1.1-2V10.9c0-1.1-0.4-1.8-1.1-2.2c-0.7-0.4-1.8-0.5-3.3-0.5v-1h12.1v1
			c-1.9,0-3.1,0.2-3.8,0.5c-0.8,0.4-1.1,1.2-1.1,2.2v9.3h5.3c1.8-1,3.3-2.3,4.4-3.9c0.7-0.9,1.4-2.3,2.2-4.2
			c0.8-1.9,1.5-3.1,2.1-3.8c1-1,2.5-1.5,4.4-1.5c1.6,0,2.8,0.2,3.6,0.6c0.8,0.4,1.3,1,1.3,1.7c0,0.6-0.2,1.1-0.7,1.5
			c-0.5,0.4-1.1,0.7-1.8,0.7c-0.6,0-1.1-0.2-1.5-0.5c-0.2-0.2-0.5-0.6-0.8-1.1c-0.2-0.4-0.4-0.7-0.5-0.8c-0.2-0.2-0.5-0.3-0.8-0.3
			c-0.7,0-1.3,0.3-1.7,0.9c-0.3,0.4-0.7,1.1-1.2,2.3c-0.8,1.8-1.5,3.2-2.2,4.2c-1.2,1.7-2.7,3.3-4.6,4.7c2.4,0.5,4.3,1.5,5.8,3
			c0.9,0.9,1.8,2.2,2.8,4.1c0.7,1.3,1.3,2.2,1.7,2.7c0.7,0.7,1.6,1.1,2.6,1.2c1-0.2,1.6-0.5,2.1-0.8c0.7-0.6,1.2-1.5,1.3-2.8
			c0-0.5,0.2-0.8,0.6-0.7c0.4,0,0.7,0.4,0.8,1.2c0,2-0.5,3.6-1.5,4.7c-0.9,1-2,1.5-3.3,1.5c-1,0-1.8-0.2-2.5-0.5
			c-0.9-0.4-1.9-1.2-2.8-2.3c-0.4-0.5-0.8-1.1-1.2-1.8c-0.2-0.4-0.5-1-1-1.8c-0.9-1.8-1.7-3.1-2.5-3.9c-1.3-1.3-3-2.3-5.3-3h-5.2
			v8.9c0,0.9,0.4,1.5,1.1,2c0.8,0.5,2.1,0.7,3.8,0.7v1h-12.1v-1C185.6,32.9,186.7,32.7,187.4,32.2z"/>
		<path class="st2" d="M269,14.6c1.4,1.6,2,3.6,2,5.9c0,2.3-0.7,4.2-2,5.8c-1.5,1.8-3.5,2.7-6,2.7c-2.5,0-4.5-0.9-6-2.7
			c-1.3-1.6-2-3.5-2-5.8c0-2.3,0.7-4.3,2-5.9c1.5-1.8,3.5-2.6,6-2.6C265.5,12,267.5,12.9,269,14.6z"/>
		<path class="st2" d="M273.1,7.1h11.7v1c-1.5,0-2.5,0.2-3.2,0.5c-0.7,0.3-1.1,0.8-1.1,1.6v20.9c0,0.6,0.3,1.1,1,1.3
			c0.6,0.3,1.6,0.4,2.9,0.4h8.9c1.2,0,2.1-0.1,2.8-0.4c0.7-0.3,1.1-0.7,1.1-1.3V10.2c0-0.8-0.4-1.3-1.2-1.6c-0.8-0.3-2-0.5-3.7-0.5
			v-1L348,3l-43.4,5.1c-1.6,0-2.8,0.2-3.6,0.5s-1.1,0.8-1.1,1.6v20.9c0,0.6,0.4,1.1,1.1,1.3c0.7,0.3,1.9,0.4,3.6,0.4l1.3,6.6h-1.1
			c-0.6-1.7-1.3-3-2.1-3.8c-1.1-1.2-2.5-1.7-4.3-1.7h-25.3v-1c1.5,0,2.7-0.1,3.4-0.4c0.8-0.3,1.2-0.7,1.2-1.3V10.2
			c0-0.8-0.4-1.3-1.2-1.6c-0.8-0.3-1.9-0.5-3.4-0.5V7.1z"/>
		<path class="st2" d="M318.6,32.9c1.6,0,2.7-0.2,3.3-0.6c0.6-0.4,0.9-1,0.9-2V10.4c0-0.8-0.3-1.4-0.8-1.7c-0.6-0.4-1.8-0.5-3.4-0.5
			v-1h11.3v1c-1.6,0-2.7,0.2-3.3,0.5c-0.6,0.4-0.9,0.9-0.9,1.7v17.9l15.5-17.7v-0.2c0-0.8-0.3-1.4-1-1.7c-0.7-0.4-1.8-0.5-3.3-0.5
			v-1h11.3v1c-1.6,0-2.7,0.2-3.3,0.5c-0.6,0.4-0.9,0.9-0.9,1.7v19.9c0,0.9,0.3,1.6,0.9,2c0.6,0.4,1.8,0.6,3.3,0.6v1h-11.3v-1
			c1.5,0,2.6-0.2,3.3-0.6c0.7-0.4,1-1,1-2V12.5l-15.5,17.7v0.2c0,0.9,0.3,1.6,0.9,2c0.6,0.4,1.8,0.6,3.4,0.6v1h-11.3V32.9z"/>
		<path class="st2" d="M366,36c4-1,0.7-0.4,1.1-0.3c1.7,0.2,3.1-1.3,3.1-3l0-21.8c0-1-0.2-1.7-0.7-2c-0.4-0.4-1.2-0.6-2.2-0.6
			c-2.1,0-3.9,0.7-5.4,2.1c-1,0.9-2.1,2.4-3.3,4.6l-0.6-0.4l2.4-7.5h22.2L385,15l-0.7,0.3l-0.4-0.8c-1.2-2.2-2.1-3.6-2.9-4.4
			c-1.3-1.2-2.8-1.9-4.7-1.9c-1.2,0-2,0.2-2.6,0.6c-0.6,0.4-0.9,1.1-0.9,2v23.4c0,1,0.4,1.7,1.2,2.1c0.7,0.3,1.8,0.4,3.6,0.4V38H319
			L366,36z"/>
	</g>
</g>
</svg>
